# xmcd
#
# Track frame offsets: 
#        195
#        24535
#        43545
#        62055
#        74170
#        93007
#        106737
#        125825
#        142775
#        160120
#        175822
#
# Disc length: 2656 seconds
#
# Revision: 2
# Processed by: cddbd v1.5.2PL0 Copyright (c) Steve Scherf et al.
# Submitted via: ExactAudioCopy v0.99pb3
#
DISCID=8f0a5e0b
DTITLE=Lowell Fulson - Hold On
DYEAR=1992
DGENRE=Blues
TTITLE0=Working Man
TTITLE1=Shake, Rattle and Roll
TTITLE2=Me and My Woman
TTITLE3=Ain't That Sweet
TTITLE4=Quicker the Better
TTITLE5=It's No Need
TTITLE6=Real Name is Danger Zone
TTITLE7=I'm Just A Fool About You
TTITLE8=Cryin' Won't Help
TTITLE9=Hold On
TTITLE10=Love is the Bottom Line
EXTD=
EXTT0=
EXTT1=
EXTT2=
EXTT3=
EXTT4=
EXTT5=
EXTT6=
EXTT7=
EXTT8=
EXTT9=
EXTT10=
PLAYORDER=
